# xmcd CD database file
#
# Track frame offsets:
#	150
#	22150
#	42137
#
# Disc length: 855 seconds
#
# Revision: 0
# Processed by: cddbd v1.5PL3 Copyright (c) Steve Scherf et al.
# Submitted via: CDex 1.51
#
DISCID=1e035503
DTITLE=松田聖子 - 輝いた季節へ旅立とう
DYEAR=1994
DGENRE=JPop
TTITLE0=輝いた季節へ旅立とう
TTITLE1=It's Style
TTITLE2=輝いた季節へ旅立とう (オリジナル・カラオケ)
EXTD=YEAR: 1994
EXTT0=
EXTT1=
EXTT2=
PLAYORDER=
